<svg xmlns="http://www.w3.org/2000/svg" viewBox="0 0 64 64">
  <rect width="64" height="64" rx="14" fill="#0b1726" />
  <path
    d="M22 18h20c2.8 0 5 2.2 5 5v5H17v-5c0-2.8 2.2-5 5-5Zm4 0v-2.5c0-2 1.6-3.5 3.5-3.5h5c2 0 3.5 1.6 3.5 3.5V18h-3v-2a1 1 0 0 0-1-1h-4a1 1 0 0 0-1 1v2h-3Z"
    fill="#7fb3ff"
  />
  <rect x="10" y="24" width="44" height="30" rx="6" fill="#2d7ef7" />
  <rect x="10" y="31" width="44" height="4" fill="#1a5cc6" />
  <rect x="28" y="30" width="8" height="6" rx="2" fill="#d9e9ff" />
</svg>
